<svg xmlns="http://www.w3.org/2000/svg" viewBox="0 0 512 512"><path fill="#e1e1e3" d="M295.75 116.62 290 138.85a14.76 14.76 0 0 1-8.52 9.85l-61.54 25.91-68.24 68.17-25.93 61.51a14.8 14.8 0 0 1-9.86 8.51l-22.24 5.76a14.72 14.72 0 0 1-14.08-3.83L11.81 247A14.68 14.68 0 0 1 8 232.9l5.74-22.23a14.67 14.67 0 0 1 8.52-9.85l61.54-25.91 68.2-68.17 26-61.51a14.56 14.56 0 0 1 4.18-5.59 14.38 14.38 0 0 1 5.63-2.89L210.05 31a14.66 14.66 0 0 1 14.08 3.8l67.79 67.76a14.67 14.67 0 0 1 3.83 14.06Z"/><path fill="#e1e1e3" d="M295.75 116.62 290 138.85a14.76 14.76 0 0 1-8.52 9.85l-61.54 25.91-68.24 68.17-25.93 61.51a14.8 14.8 0 0 1-9.86 8.51l-22.24 5.76a14.72 14.72 0 0 1-14.08-3.83L11.81 247A14.68 14.68 0 0 1 8 232.9l5.74-22.23a14.67 14.67 0 0 1 8.52-9.85l61.54-25.91 68.2-68.17 26-61.51a14.56 14.56 0 0 1 4.18-5.59 14.38 14.38 0 0 1 5.63-2.89L210.05 31a14.66 14.66 0 0 1 14.08 3.8l67.79 67.76a14.67 14.67 0 0 1 3.83 14.06Z"/><path fill="#c8c5cc" d="m291.92 102.55-67.79-67.76A14.66 14.66 0 0 0 210.05 31l-4.52 1.17a15 15 0 0 1 3.6 2.63l67.79 67.76a14.67 14.67 0 0 1 3.83 14.07L275 138.85a14.76 14.76 0 0 1-8.52 9.85l-61.54 25.91-68.24 68.17-25.93 61.51a14.8 14.8 0 0 1-9.86 8.51l-17.68 4.58a14.7 14.7 0 0 0 10.44 1.18l22.24-5.76a14.8 14.8 0 0 0 9.86-8.51l25.93-61.51 68.22-68.17 61.54-25.91a14.76 14.76 0 0 0 8.52-9.85l5.77-22.23a14.67 14.67 0 0 0-3.83-14.07Z"/><path fill="#aeadb3" d="m219.93 174.58-67.59-68.15-68.84 68.8 67.59 68.14 68.84-68.79z"/><path fill="#8b8893" d="m152.34 106.43-7.53 7.57 46.09 46.48a20 20 0 0 1-.06 28.23l-47.22 47.18 7.47 7.53 68.84-68.79Z"/><path fill="#a17855" d="m422.69 407.47-2.69 2.69-35.42 35.39-35.37-35.39-14.99-15L307 367.92l-14.98-15-27.22-27.23-14.96-14.98-24.2-24.21-14.99-15-30.26-30.28-13.56-13.57 1.43-1.43 36.68-36.65 36.62 36.65 14.99 15 30.26 30.28 14.98 14.99 24.19 24.2 14.83 14.85 27.37 27.38 14.91 14.92 27.3 27.32 12.3 12.31z"/><path fill="#896848" d="M241.56 226.22h-15l-29.13-29.15 7.51-7.5 36.62 36.65zM286.81 271.5h-15l-30.26-30.28h15l30.26 30.28zM326 310.69h-15l-28.5-28.49 11.09-2.28c.09 0 8.11 6.58 8.2 6.57zm42.18 42.23h-15L326 325.69h13.33a7.61 7.61 0 0 0 1.52-.15zm42.21 42.24h-15l-27.22-27.24h13.89a5.88 5.88 0 0 0 1-.08zm9.61 15-35.42 35.39-7.49-7.5 18.29-18.28a17.33 17.33 0 0 0 4.89-9.61z"/><path fill="#3c3b41" d="M256.55 241.22h-15l-14.99-15h15l14.99 15z"/><path fill="#57565c" d="M241.55 241.22h-61.16l-13.56-13.57 1.43-1.43h58.3l14.99 15z"/><path fill="#3c3b41" d="M340.81 325.54a7.61 7.61 0 0 1-1.52.15H326l-.15-.15L311 310.69h15Z"/><path fill="#57565c" d="M326 325.69h-61.2l-15-15a3.39 3.39 0 0 1 .45 0H311l14.83 14.85Z"/><path fill="#3c3b41" d="M383.09 367.84a5.88 5.88 0 0 1-1 .08h-13.92l-.08-.08-14.91-14.92h15Z"/><path fill="#57565c" d="M368.17 367.92H307l-14.98-15h61.16l14.91 14.92.08.08z"/><path fill="#3c3b41" d="m422.69 407.47-2.69 2.69h-19.73a17.42 17.42 0 0 0-4.88-15h15Z"/><path fill="#57565c" d="M400.48 407.46a17.44 17.44 0 0 1-.21 2.7h-51.06l-15-15h61.17a17.37 17.37 0 0 1 5.1 12.3Z"/><rect width="95.01" height="39.18" x="370.06" y="420.68" fill="#f9a242" rx="15" transform="rotate(-44.98 417.561 440.268)"/><path fill="#f69531" d="m454.41 409.94-6.49-6.5a15 15 0 0 0-18.11-2.37 14.9 14.9 0 0 1 3.11 2.37l6.49 6.5a15 15 0 0 1 0 21.21l-46 46a15.11 15.11 0 0 1-3.1 2.37 15 15 0 0 0 18.1-2.37l46-46a15 15 0 0 0 0-21.21Z"/><path fill="#a17855" d="m137 121.79-38.14 38.08-17-17a20 20 0 0 1-5.62-17.27l3.61-22.82 22.85-3.61a20 20 0 0 1 17.3 5.61Z"/><path fill="#896848" d="M120 104.78a20 20 0 0 0-17.26-5.61l-5.38.85a19.89 19.89 0 0 1 7.64 4.76l2.86 2.85a20 20 0 0 1 0 28.31l-16.49 16.43 7.49 7.5L137 121.79Z"/><path fill="#aeadb3" d="M295.75 116.62 290 138.85a14.66 14.66 0 0 1-2.85 5.6L182.35 39.74l-.17-.1a14.38 14.38 0 0 1 5.63-2.89L210.05 31a14.66 14.66 0 0 1 14.08 3.8l67.79 67.76a14.67 14.67 0 0 1 3.83 14.06Z"/><path fill="#8b8893" d="m291.92 102.55-67.79-67.76A14.66 14.66 0 0 0 210.05 31l-4.52 1.17a15 15 0 0 1 3.6 2.63l67.79 67.76a14.67 14.67 0 0 1 3.83 14.07l-4.42 17 10.8 10.79a14.66 14.66 0 0 0 2.85-5.6l5.77-22.23a14.67 14.67 0 0 0-3.83-14.04Z"/><path fill="#aeadb3" d="M119.91 311.09a14.64 14.64 0 0 1-4 1.71l-22.24 5.76a14.72 14.72 0 0 1-14.08-3.83L11.81 247A14.68 14.68 0 0 1 8 232.9l5.74-22.23a14.79 14.79 0 0 1 1.7-4L119.3 310.45Z"/><ellipse cx="151.71" cy="174.9" fill="#fff" rx="14.7" ry="14.69"/><path fill="#e1e1e3" d="M151.71 160.21a14.65 14.65 0 0 0-4.89.85 14.67 14.67 0 0 1 0 27.68 14.69 14.69 0 1 0 4.89-28.53Z"/><path d="M485.76 375.23a26.25 26.25 0 0 0-26.22 26.22v3l-6.31-6.32a22.35 22.35 0 0 0-15.91-6.59 22.28 22.28 0 0 0-14.56 5.37L215.55 189.58l8.63-8.63 60.19-25.34a22.4 22.4 0 0 0 5.75-3.56 7.33 7.33 0 0 0 2.85-1.77 7.52 7.52 0 0 0 2.11-4.23 22.25 22.25 0 0 0 2.16-5.32L303 118.5a22.25 22.25 0 0 0-5.79-21.26l-67.8-67.77a22.26 22.26 0 0 0-21.25-5.74l-22.26 5.76a22.35 22.35 0 0 0-14.81 12.8l-25.43 60.16-8.66 8.71-11.74-11.69a27.56 27.56 0 0 0-23.73-7.71l-22.85 3.61a7.5 7.5 0 0 0-6.24 6.23l-3.61 22.83a27.57 27.57 0 0 0 7.73 23.74l11.69 11.69-8.71 8.7-60.19 25.34a22.24 22.24 0 0 0-9.35 7.48A7.35 7.35 0 0 0 8.33 204a22 22 0 0 0-1.85 4.76L.75 231a22.22 22.22 0 0 0 5.76 21.3L74.29 320a22.28 22.28 0 0 0 21.26 5.79l22.23-5.76a22.3 22.3 0 0 0 14.9-12.86L158 247l8.78-8.76a7.46 7.46 0 0 0 1.53 1.49l40.83 40.86a7.19 7.19 0 0 0 1.17 1.17l41.43 41.46c.14.15.28.29.43.43L374 445.61a22.52 22.52 0 0 0 1.37 30.29l6.49 6.5a22.35 22.35 0 0 0 15.95 6.6 22.38 22.38 0 0 0 15.9-6.58l46-46a22.41 22.41 0 0 0 5.51-9 7.26 7.26 0 0 0 1.82.24h18.75a26.22 26.22 0 0 0 0-52.44ZM212 38.24a7.22 7.22 0 0 1 6.88 1.85l67.79 67.76a7.2 7.2 0 0 1 1.87 6.88L284.27 131l-88.59-88.55Zm-28.5 13.24 91.75 91.69-53.54 22.55-60.65-61.15Zm-96.34 86.08a12.54 12.54 0 0 1-3.51-10.79l2.76-17.44 17.46-2.76a12.54 12.54 0 0 1 10.79 3.51l11.7 11.68-27.5 27.49Zm4.63 173.74a7.27 7.27 0 0 1-6.9-1.88l-67.77-67.74a7.18 7.18 0 0 1-1.86-6.91l3.63-14.05 87 86.92Zm27.65-11.3-92.9-92.84L81.61 184l60.87 61.37Zm42.18-77.73-.09.08-.08.09-10.33 10.32-57-57.51 10-10 .13-.12a1.42 1.42 0 0 0 .12-.13l37.45-37.43c.2-.17.39-.34.58-.53a6.91 6.91 0 0 0 .51-.57l9.39-9.47 57 57.52-9.61 9.61-.1.09-.09.1Zm43.32-22.08 26 26h-52.06Zm-13.94 41h55l27.21 27.23h-55Zm42.2 42.23h54.95l27.22 27.24h-54.95Zm42.21 42.24h54.95l27.21 27.23h-54.95Zm42.2 42.23h54.95l27.22 27.24h-54.95Zm42.21 42.24h49.55l-24.79 24.77Zm89.28 15.68-46 46a7.48 7.48 0 0 1-5.31 2.19 7.44 7.44 0 0 1-5.3-2.2l-6.49-6.5a7.52 7.52 0 0 1 0-10.61l3.72-3.71a1.79 1.79 0 0 0 .14-.13.86.86 0 0 0 .13-.14l37.85-37.82.13-.12.11-.12 3.91-3.91a7.48 7.48 0 0 1 5.3-2.19 7.48 7.48 0 0 1 5.31 2.19l6.49 6.5a7.5 7.5 0 0 1 0 10.6Zm36.68-13.17h-11.24v-11.19a11.22 11.22 0 1 1 11.24 11.22Zm-334.07-260a22.19 22.19 0 1 0 22.2 22.19 22.22 22.22 0 0 0-22.2-22.12Zm0 29.38a7.19 7.19 0 1 1 7.2-7.19 7.21 7.21 0 0 1-7.2 7.26Z"/></svg>